<svg id="图层_1" data-name="图层 1" xmlns="http://www.w3.org/2000/svg" xmlns:xlink="http://www.w3.org/1999/xlink" viewBox="0 0 10.96 11.53"><defs><style>.cls-1{fill:url(#未命名的渐变_66);}</style><linearGradient id="未命名的渐变_66" x1="0.46" y1="4.48" x2="11.12" y2="7.33" gradientUnits="userSpaceOnUse"><stop offset="0" stop-color="#001ce9"/><stop offset="0.05" stop-color="#0225e2"/><stop offset="0.12" stop-color="#063fcf"/><stop offset="0.22" stop-color="#0e68af"/><stop offset="0.34" stop-color="#19a284"/><stop offset="0.47" stop-color="#26eb4d"/><stop offset="0.5" stop-color="#2aff3e"/><stop offset="0.75" stop-color="#2aff9d"/><stop offset="0.99" stop-color="#2aff3e"/></linearGradient></defs><title>icon</title><path class="cls-1" d="M2.8,6.09q0,.39-.07,2.16a13.21,13.21,0,0,1-.19,2.31c-.09.36-.19.5-.28.42A1.55,1.55,0,0,1,2,10.33a1.53,1.53,0,0,1,0-1,6.91,6.91,0,0,0,.23-1.92A6.32,6.32,0,0,0,2.17,5.6,15.28,15.28,0,0,1,.92,7a4.52,4.52,0,0,1-1,.75q-.49.26-.35.08t.88-1A12,12,0,0,0,1.8,5.11a6.41,6.41,0,0,0,.72-1.38A5.58,5.58,0,0,0,2.68,3q0-.36.56.08t.23.7a8.41,8.41,0,0,0-1,1.4A1.83,1.83,0,0,1,2.8,6.09ZM7.54,1a1,1,0,0,1,.91.29q.37.36-.19.44a7.17,7.17,0,0,1-1,.08,6.65,6.65,0,0,0-1,.1q-.63.1-2.14.42l-1.93.42a1,1,0,0,1-.86-.23q-.44-.34,0-.34A9.38,9.38,0,0,0,2.47,2q.77-.1,1.88-.36l1.86-.42A12.57,12.57,0,0,1,7.54,1ZM6.75,3.7a.81.81,0,0,1,.86,0q.56.26.33.44a1.09,1.09,0,0,0-.35.49Q7.47,5,7.08,5.91a12.54,12.54,0,0,1-1,1.82A8.13,8.13,0,0,0,8.19,9.08,7,7,0,0,0,10,9.5q1,.1.23.34a10.07,10.07,0,0,1-1.56.36A1.38,1.38,0,0,1,7.4,9.94l-.65-.65q-.26-.26-1-1.19a4.89,4.89,0,0,1-1.19.86,3.93,3.93,0,0,1-1,.36q-.44.08-.12-.13l.93-.62a4.48,4.48,0,0,0,1-.88l-.74-.81a2.27,2.27,0,0,0-.74-.55Q3.43,6.17,3.64,6A.76.76,0,0,1,4,5.91a7.42,7.42,0,0,0,1-1.79,2.28,2.28,0,0,0,.21-1.19c-.06-.26,0-.35.23-.26A1.88,1.88,0,0,1,6.05,3c.14.12.17.24.09.36S6,3.68,5.8,4A1.8,1.8,0,0,0,6.75,3.7ZM3.92-.35q-.12-.28.56-.13A1.4,1.4,0,0,1,5.38,0a.68.68,0,0,1,.07.7Q5.29,1.08,5,.9A4.43,4.43,0,0,1,4.36.35,3.1,3.1,0,0,1,3.92-.35ZM6.43,5.83a4.3,4.3,0,0,0,.35-1.27q0-.36-.28-.34c-.19,0-.46,0-.84,0A6.7,6.7,0,0,1,5.19,5a1.57,1.57,0,0,1,.91.34A.74.74,0,0,1,6.22,6q-.09.44-.49-.05T5.1,5.18a5.59,5.59,0,0,1-.84.93q.93.78,1.39,1.14A5.31,5.31,0,0,0,6.43,5.83Z" transform="translate(0.46 0.53)"/></svg>